<?xml version="1.0" standalone="no"?>
<!DOCTYPE svg PUBLIC "-//W3C//DTD SVG 20010904//EN"
 "http://www.w3.org/TR/2001/REC-SVG-20010904/DTD/svg10.dtd">
<svg version="1.0" xmlns="http://www.w3.org/2000/svg"
 width="1024.000000pt" height="1024.000000pt" viewBox="0 0 1024.000000 1024.000000"
 preserveAspectRatio="xMidYMid meet">
<metadata>
Created by potrace 1.11, written by Peter Selinger 2001-2013
</metadata>
<g transform="translate(0.000000,1024.000000) scale(0.100000,-0.100000)"
fill="#000000" stroke="none">
<path d="M5099 9793 c-9 -10 -1092 -1093 -2408 -2407 -1315 -1314 -2391 -2392
-2391 -2396 0 -7 570 -572 589 -585 7 -4 83 65 197 179 102 102 187 186 190
186 2 0 4 -785 4 -1745 l0 -1745 3840 0 3840 0 0 1749 0 1748 190 -189 c109
-110 194 -187 200 -183 20 13 590 579 590 587 0 4 -317 323 -704 710 l-703
703 1 1278 1 1277 -640 -2 -640 -3 0 -632 c0 -348 -3 -632 -7 -630 -5 1 -484
478 -1066 1060 -581 581 -1060 1057 -1062 1057 -3 0 -13 -8 -21 -17z"/>
</g>
</svg>
